<?xml version="1.0" encoding="utf-8"?>
<!-- Generator: Adobe Illustrator 21.0.2, SVG Export Plug-In . SVG Version: 6.00 Build 0)  -->
<svg version="1.1" id="Layer_1" xmlns="http://www.w3.org/2000/svg" xmlns:xlink="http://www.w3.org/1999/xlink" x="0px" y="0px"
	 viewBox="0 0 300.7 280.7" style="enable-background:new 0 0 300.7 280.7;" xml:space="preserve">
<style type="text/css">
	.st0{fill:none;stroke:#CBCACA;stroke-miterlimit:10;stroke-opacity:1;}
	.st1{fill:none;stroke:#000002;stroke-width:1.4151;stroke-miterlimit:7.6613;opacity:0;}
	.st2{fill:#969697;opacity:0;}
	.st3{fill-rule:evenodd;clip-rule:evenodd;fill:#718CC7;opacity:0;}
	.st4{fill:#000002;fill-opacity:0;}
	.st5{fill:none;stroke:#969697;opacity:0;}
	.st6{fill:#718CC7;}
	.st7{fill:#7F5F26;}
	.st8{fill:#B3B2B3;}
	.st9{fill:#969697;}
	.st10{fill:#CBCACA;}
	.st11{fill:none;stroke-width:1;}
	.st12{fill:#CBCACA;fill-opacity:0;}
	.st13{fill:none;stroke-width:1;}
	.st14{fill:#7F5F26;fill-opacity:0;}
	.st15{fill:none;stroke-width:1;}
	.st16{fill:none;stroke:#969697;}
	.st17{fill:none;stroke-width:1;}
	.st18{opacity:0};
</style>
<g id="desktop">
	<g>
		<path id="desktop_border" class="st0 st18" d="M32.9,50.8h234.9c4.5,0,8.7,0.9,12.6,2.5c4,1.6,7.7,4.1,10.7,7.1s5.5,6.7,7.2,10.7
			c1.5,3.9,2.4,8.1,2.4,12.6V247c0,4.4-0.9,8.7-2.4,12.5c-1.7,4.1-4.2,7.7-7.2,10.8c-3,3-6.7,5.4-10.7,7.1
			c-3.9,1.6-8.1,2.5-12.6,2.5H32.9c-4.4,0-8.7-0.9-12.6-2.5c-4-1.7-7.6-4.1-10.6-7.1c-3.1-3.1-5.5-6.7-7.2-10.8
			C0.9,255.7,0,251.4,0,247V83.7c0-4.5,0.9-8.7,2.5-12.6c1.7-4,4.1-7.7,7.2-10.7c3-3,6.6-5.5,10.6-7.1
			C24.2,51.7,28.5,50.8,32.9,50.8z M32.9,50.8L32.9,50.8L32.9,50.8z M267.8,51.5H32.9c-4.3,0-8.5,0.8-12.3,2.4
			c-3.9,1.6-7.5,4-10.4,7c-3,3-5.4,6.5-7,10.5c-1.6,3.8-2.5,7.9-2.5,12.3V247c0,4.4,0.9,8.5,2.5,12.3c1.6,3.9,4,7.5,7,10.4
			c2.9,3,6.5,5.4,10.4,7c3.8,1.6,8,2.5,12.3,2.5h234.9c4.4,0,8.5-0.9,12.3-2.5c4-1.6,7.5-4,10.5-7c2.9-2.9,5.4-6.5,7-10.4
			c1.6-3.8,2.4-7.9,2.4-12.3V83.7c0-4.4-0.8-8.5-2.4-12.3c-1.6-4-4.1-7.5-7-10.5c-3-3-6.5-5.4-10.5-7
			C276.3,52.3,272.2,51.5,267.8,51.5z M267.8,51.5L267.8,51.5L267.8,51.5z M267.8,65H32.9c-2.5,0-4.9,0.5-7.1,1.4
			c-2.3,1-4.3,2.4-6.1,4.1c-1.7,1.7-3.1,3.8-4,6c-0.9,2.2-1.4,4.7-1.4,7.2V247c0,2.5,0.5,4.9,1.4,7.1c0.9,2.3,2.3,4.3,4,6.1
			c1.8,1.7,3.8,3.1,6.1,4c2.2,1,4.6,1.5,7.1,1.5h234.9c2.6,0,4.9-0.5,7.2-1.5c2.2-0.9,4.3-2.3,6-4c1.7-1.8,3.1-3.8,4.1-6.1
			c0.9-2.2,1.4-4.6,1.4-7.1V83.7c0-2.5-0.5-5-1.4-7.2c-1-2.2-2.4-4.3-4.1-6c-1.7-1.7-3.8-3.1-6-4.1C272.7,65.5,270.4,65,267.8,65z
			 M267.8,65L267.8,65L267.8,65z M32.9,64.3c-2.6,0-5.1,0.5-7.4,1.5S21,68.2,19.2,70c-1.7,1.8-3.2,3.9-4.2,6.3
			c-0.9,2.3-1.5,4.7-1.5,7.4V247c0,2.6,0.6,5.1,1.5,7.4c1,2.3,2.5,4.5,4.2,6.3c1.8,1.8,4,3.2,6.3,4.2c2.3,0.9,4.8,1.5,7.4,1.5h234.9
			c2.6,0,5.1-0.6,7.4-1.5c2.4-1,4.5-2.4,6.3-4.2c1.8-1.8,3.3-4,4.2-6.3c1-2.3,1.5-4.8,1.5-7.4V83.7c0-2.7-0.5-5.1-1.5-7.4
			c-0.9-2.4-2.4-4.5-4.2-6.3c-1.8-1.8-3.9-3.2-6.3-4.2c-2.3-1-4.8-1.5-7.4-1.5C267.8,64.3,32.9,64.3,32.9,64.3z"/>
		<rect id="gr_sq_desktop_7" x="33.1" y="105.4" class="st1" width="103.5" height="24"/>
		<path id="gr_sq_desktop_6" class="st2" d="M33,135.9h49.3v25.5H32.4v-25.5H33z M33,135.9L33,135.9L33,135.9z M80.9,137.3H33.8V160
			h47.1C80.9,160,80.9,137.3,80.9,137.3z"/>
		<path id="gr_sq_desktop_5" class="st2" d="M88.1,135.9h49.2v25.5H87.4v-25.5H88.1z M88.1,135.9L88.1,135.9L88.1,135.9z
			 M135.9,137.3H88.8V160h47.1V137.3z"/>
		<rect id="black_sq_desktop_4" x="175.6" y="105.6" class="st1" width="103.5" height="24"/>
		<path id="bl_polygon_desktop_1" class="st3" d="M42.3,76.2l8.4,4.8v10.2l-8.8,5.1l-8.8-5.1V81l8.8-5L42.3,76.2z M42.3,76.2
			L42.3,76.2L42.3,76.2z M45.6,79.7l-3.7-2.1l-7.4,4.3v8.5l7.4,4.2l7.4-4.2v-8.5L45.6,79.7z"/>
		<path id="bl_triangle_desktop_10" class="st2" d="M145.7,106.5h20.9l-11,10.9l-10.9-10.9C144.7,106.5,145.7,106.5,145.7,106.5z
			 M145.7,106.5L145.7,106.5L145.7,106.5z M164.6,107.3h-17.9l8.9,9L164.6,107.3z"/>
		<path id="bl_triangle_desktop_9" class="st2" d="M146.7,129.7h17.9l-9-9L146.7,129.7z M146.7,129.7L146.7,129.7L146.7,129.7z
			 M165.6,130.5h-20.9l10.9-11l11,11H165.6z"/>
		<path id="bl_triangle_desktop_8" class="st3" d="M189.1,157.2v-20.9l11,11l-11,10.9V157.2z M189.1,157.2L189.1,157.2L189.1,157.2z
			 M189.9,138.3v17.9l9-8.9L189.9,138.3z"/>
		<path id="bl_triangle_desktop_7" class="st3" d="M185.7,156.2v-17.9l-9,9L185.7,156.2z M185.7,156.2L185.7,156.2L185.7,156.2z
			 M186.5,137.3v20.9l-10.9-10.9l10.9-11V137.3z"/>
		<path id="bl_triangle_desktop_6" class="st3" d="M215.3,157.2v-20.9l11,11l-11,10.9V157.2z M215.3,157.2L215.3,157.2L215.3,157.2z
			 M216.2,138.3v17.9l8.9-8.9L216.2,138.3z"/>
		<path id="bl_triangle_desktop_5" class="st3" d="M212,156.2v-17.9l-9,9L212,156.2z M212,156.2L212,156.2L212,156.2z M212.8,137.3
			v20.9l-11-10.9l11-11V137.3z"/>
		<path id="bl_triangle_desktop_4" class="st3" d="M241.6,157.2v-20.9l11,11l-11,10.9V157.2z M241.6,157.2L241.6,157.2L241.6,157.2z
			 M242.4,138.3v17.9l9-8.9L242.4,138.3z"/>
		<path id="bl_triangle_desktop_3" class="st3" d="M238.2,156.2v-17.9l-9,9L238.2,156.2z M238.2,156.2L238.2,156.2L238.2,156.2z
			 M239,137.3v20.9l-10.9-10.9l10.9-11V137.3z"/>
		<path id="bl_triangle_desktop_2" class="st3" d="M267.8,157.2v-20.9l11,11l-11,10.9V157.2z M267.8,157.2L267.8,157.2L267.8,157.2z
			 M268.7,138.3v17.9l8.9-8.9L268.7,138.3z"/>
		<path id="bl_triangle_desktop_1" class="st3" d="M264.5,156.2v-17.9l-9,9L264.5,156.2z M264.5,156.2L264.5,156.2L264.5,156.2z
			 M265.3,137.3v20.9l-11-10.9l11-11V137.3z"/>
		<path id="bl_sq_desktop_3_1" class="st3" d="M208.9,186.6H244v35.8h-35.8v-35.8H208.9z M208.9,186.6L208.9,186.6L208.9,186.6z
			 M242.6,188.1h-33V221h33V188.1z"/>
		<path id="black_sq_desktop_2" class="st4" d="M199.1,176.9h54.7v55.4h-55.4v-55.4H199.1z M199.1,176.9L199.1,176.9L199.1,176.9z
			 M252.4,178.2h-52.6v52.7h52.6V178.2z"/>
		<path id="gr_sq_desktop_1" class="st2" d="M188.5,166.2h75.9v76.7h-76.6v-76.7C187.8,166.2,188.5,166.2,188.5,166.2z M188.5,166.2
			L188.5,166.2L188.5,166.2z M263,167.6h-73.8v73.9H263V167.6z"/>
		<line id="gr_vert_line_desktop_1" class="st1" x1="156.4" y1="150.7" x2="156.4" y2="242.2"/>
		<rect id="gr_dash_line_desktop_7" x="171.2" y="167.8" class="st2" width="1.4" height="7.1"/>
		<rect id="gr_dash_line_desktop_6" x="171.2" y="179" class="st2" width="1.4" height="7.2"/>
		<rect id="gr_dash_line_desktop_5" x="171.2" y="190.3" class="st2" width="1.4" height="7.1"/>
		<rect id="gr_dash_line_desktop_4" x="171.2" y="201.5" class="st2" width="1.4" height="7.2"/>
		<rect id="gr_dash_line_desktop_3" x="171.2" y="212.8" class="st2" width="1.4" height="7.1"/>
		<rect id="gr_dash_line_desktop_2" x="171.2" y="224" class="st2" width="1.4" height="7.2"/>
		<rect id="gr_dash_line_desktop_1" x="171.2" y="235.3" class="st2" width="1.4" height="7.1"/>
		<line id="gr_line_desktop_9" class="st5 st18" x1="63.8" y1="179.5" x2="136.6" y2="179.5"/>
		<line id="gr_line_desktop_8" class="st5" x1="63.8" y1="179.5" x2="136.6" y2="179.5"/>
		<line id="gr_line_desktop_7" class="st5" x1="63.8" y1="187" x2="136.6" y2="187"/>
		<line id="gr_line_desktop_6" class="st5" x1="63.8" y1="194.5" x2="136.6" y2="194.5"/>
		<line id="gr_line_desktop_5" class="st5" x1="38.8" y1="202" x2="136.6" y2="202"/>
		<path id="bl_circle_desktop_2" class="st3" d="M48,175.3c2.9,0,5.5,1.2,7.4,3.1c1.9,1.8,3.1,4.5,3.1,7.4c0,2.8-1.2,5.5-3.1,7.4
			c-1.9,1.9-4.5,3-7.4,3s-5.5-1.1-7.4-3s-3.1-4.6-3.1-7.4c0-2.9,1.2-5.6,3.1-7.4C42.5,176.5,45.1,175.3,48,175.3z M48,175.3
			L48,175.3L48,175.3z M54.4,179.4c-1.7-1.7-3.9-2.7-6.4-2.7s-4.7,1-6.4,2.7c-1.7,1.6-2.7,3.9-2.7,6.4s1,4.7,2.7,6.4
			c1.7,1.6,3.9,2.6,6.4,2.6s4.7-1,6.4-2.6c1.7-1.7,2.7-3.9,2.7-6.4C57.1,183.3,56.1,181,54.4,179.4z"/>
		<line id="gr_line_desktop_4" class="st5" x1="63.8" y1="219" x2="136.6" y2="219"/>
		<line id="gr_line_desktop_3" class="st5" x1="63.8" y1="226.5" x2="136.6" y2="226.5"/>
		<line id="gr_line_desktop_2" class="st5" x1="63.8" y1="233.9" x2="136.6" y2="233.9"/>
		<line id="gr_line_desktop_1" class="st5" x1="38.8" y1="241.5" x2="136.6" y2="241.5"/>
		<path id="bl_circle_desktop_1" class="st3" d="M48,214.7c2.9,0,5.5,1.2,7.4,3.1c1.9,1.9,3.1,4.5,3.1,7.4s-1.2,5.5-3.1,7.4
			c-1.9,1.9-4.5,3.1-7.4,3.1s-5.5-1.2-7.4-3.1c-1.9-1.9-3.1-4.5-3.1-7.4s1.2-5.5,3.1-7.4C42.5,215.9,45.1,214.7,48,214.7z M48,214.7
			L48,214.7L48,214.7z M54.4,218.8c-1.7-1.7-3.9-2.7-6.4-2.7s-4.7,1-6.4,2.7s-2.7,3.9-2.7,6.4s1,4.7,2.7,6.4s3.9,2.7,6.4,2.7
			s4.7-1,6.4-2.7s2.7-3.9,2.7-6.4C57.1,222.7,56.1,220.5,54.4,218.8z"/>
	</g>
</g>
<g id="chaos">
	<g>
		<path id="bl_polygon_6" class="st6" d="M269.6,105.8l8.5,4.8v10.2l-8.8,5.1l-8.8-5.1v-10.1l8.8-5L269.6,105.8z M269.6,105.8
			L269.6,105.8L269.6,105.8z M272.9,109.4l-3.7-2.1l-7.4,4.3v8.5l7.4,4.2l7.4-4.2v-8.5L272.9,109.4z"/>
		<path id="br_polygon_5" class="st7" d="M269.6,132.1l8.5,4.9v10.1l-8.8,5.1l-8.8-5.1v-10.2l8.8-5.1L269.6,132.1z M269.6,132.1
			L269.6,132.1L269.6,132.1z M272.9,135.7l-3.7-2.2l-7.4,4.3v8.5l7.4,4.3l7.4-4.3v-8.5L272.9,135.7z"/>
		<path id="gr_polygon_4" class="st8" d="M269.6,158.4l8.5,4.8v10.2l-8.8,5.1l-8.8-5.1v-10.2l8.8-5L269.6,158.4z M269.6,158.4
			L269.6,158.4L269.6,158.4z M272.9,161.9l-3.7-2.1l-7.4,4.3v8.5l7.4,4.2l7.4-4.2v-8.5L272.9,161.9z"/>
		<path id="bl_polygon_3" class="st6" d="M269.6,184.6l8.5,4.9v10.1l-8.8,5.1l-8.8-5.1v-10.1l8.8-5.1L269.6,184.6z M269.6,184.6
			L269.6,184.6L269.6,184.6z M272.9,188.2l-3.7-2.2l-7.4,4.3v8.5l7.4,4.3l7.4-4.3v-8.5L272.9,188.2z"/>
		<path id="br_polygon_2" class="st7" d="M269.6,210.9l8.5,4.8v10.2l-8.8,5.1l-8.8-5.1v-10.3l8.8-5L269.6,210.9z M269.6,210.9
			L269.6,210.9L269.6,210.9z M272.9,214.3l-3.7-2.1l-7.4,4.3v8.5l7.4,4.2l7.4-4.2v-8.5L272.9,214.3z"/>
		<path id="bl_polygon_1" class="st6" d="M269.6,237.1l8.5,4.9v10.1l-8.8,5.1l-8.8-5.1V242l8.8-5.1L269.6,237.1z M269.6,237.1
			L269.6,237.1L269.6,237.1z M272.9,240.7l-3.7-2.1l-7.4,4.2v8.5l7.4,4.3l7.4-4.3v-8.5L272.9,240.7z"/>
		<path id="gr_triangle_16" class="st9" d="M172.3,202.6h20.9l-10.9,11l-11-11H172.3z M172.3,202.6L172.3,202.6L172.3,202.6z
			 M191.2,203.5h-17.9l9,9L191.2,203.5z"/>
		<path id="gr_triangle_15" class="st9" d="M198.6,202.6h20.9l-11,11l-10.9-11H198.6z M198.6,202.6L198.6,202.6L198.6,202.6z
			 M217.5,203.5h-18l9,9L217.5,203.5z"/>
		<path id="gr_triangle_14" class="st9" d="M224.7,202.6h20.9l-10.9,11l-11-11H224.7z M224.7,202.6L224.7,202.6L224.7,202.6z
			 M243.6,203.5h-17.9l9,9L243.6,203.5z"/>
		<path id="gr_triangle_13" class="st10" d="M203.5,78.8h20.9l-11,11l-10.9-11H203.5z M203.5,78.8L203.5,78.8L203.5,78.8z
			 M222.4,79.6h-17.9l8.9,9L222.4,79.6z"/>
		<path id="bl_triangle_12" class="st6" d="M229.6,78.8h20.9l-10.9,11l-11-11H229.6z M229.6,78.8L229.6,78.8L229.6,78.8z
			 M248.5,79.6h-17.9l9,9L248.5,79.6z"/>
		<path id="bl_triangle_11" class="st6" d="M256,78.8h20.9l-11,11l-10.9-11H256z M256,78.8L256,78.8L256,78.8z M274.9,79.6h-18l9,9
			L274.9,79.6z"/>
		<path id="bl_triangle_10" class="st6" d="M141.5,261.2v-20.9l10.9,10.9l-10.9,11V261.2z M141.5,261.2L141.5,261.2L141.5,261.2z
			 M142.3,242.4v17.9l9-9L142.3,242.4z"/>
		<path id="gr_triangle_9" class="st8" d="M167.8,261.2v-20.9l11,10.9l-11,11V261.2z M167.8,261.2L167.8,261.2L167.8,261.2z
			 M168.7,242.4v17.9l8.9-9L168.7,242.4z"/>
		<path id="gr_triangle_8" class="st9" d="M194.1,261.2v-20.9l10.9,10.9l-10.9,11V261.2z M194.1,261.2L194.1,261.2L194.1,261.2z
			 M194.9,242.4v17.9l9-9L194.9,242.4z"/>
		<path id="bl_triangle_7" class="st6" d="M220.2,261.2v-20.9l11,10.9l-11,11V261.2z M220.2,261.2L220.2,261.2L220.2,261.2z
			 M221.1,242.4v17.9l9-9L221.1,242.4z"/>
		<path id="bl_triangle_6" class="st6" d="M74.4,124v-17.9l-9,8.9L74.4,124z M74.4,124L74.4,124L74.4,124z M75.3,105.1V126l-11-11
			l11-10.9V105.1z"/>
		<path id="bl_triangle_5" class="st6" d="M100.7,124v-17.9l-9,8.9L100.7,124z M100.7,124L100.7,124L100.7,124z M101.4,105.1V126
			l-10.9-11l10.9-10.9V105.1z"/>
		<path id="gr_triangle_4" class="st8" d="M123.5,94.4V76.5l-9,8.9L123.5,94.4z M123.5,94.4L123.5,94.4L123.5,94.4z M124.3,75.5
			v20.9l-11-11l11-10.9V75.5z"/>
		<path id="gr_triangle_3" class="st9" d="M149.8,94.4V76.5l-9,8.9L149.8,94.4z M149.8,94.4L149.8,94.4L149.8,94.4z M150.7,75.5
			v20.9l-11-11l11-10.9V75.5z"/>
		<path id="gr_triangle_2" class="st9" d="M179.5,124v-17.9l-9,8.9L179.5,124z M179.5,124L179.5,124L179.5,124z M180.2,105.1V126
			l-11-11l11-10.9V105.1z"/>
		<path id="bl_triangle_1" class="st6" d="M205.7,124v-17.9l-9,8.9L205.7,124z M205.7,124L205.7,124L205.7,124z M206.5,105.1V126
			l-10.9-11l10.9-10.9V105.1z"/>
		<path id="bl_sq_6_1" class="st3" d="M72.1,196.7h23.6v24H71.6v-24H72.1z M72.1,196.7L72.1,196.7L72.1,196.7z M94.7,197.6H72.6
			v22.2h22.2L94.7,197.6L94.7,197.6z"/>
		<rect id="bl_sq_6" x="72.1" y="196.7" class="st11" width="24" height="24" stroke="#718CC7"/>
		<path id="gr_sq_5_1" class="st12" d="M83.4,185.6h23.5v24.1h-24v-24.1H83.4z M83.4,185.6L83.4,185.6L83.4,185.6z M105.9,186.4
			H83.8v22.1H106L105.9,186.4L105.9,186.4z"/>
		<rect id="gr_sq_5" x="83.4" y="185.6" class="st13" width="24" height="24" stroke="#B3B2B3"/>
		<path id="br_sq_3_1" class="st14" d="M105.9,163h23.5v24h-24v-24H105.9z M105.9,163L105.9,163L105.9,163z M128.4,163.9h-22.2v22.2
			h22.2V163.9z"/>
		<g id="ThreeSquareAndStar">
			<rect id="br_sq_3" x="105.9" y="163" class="st15" width="24" height="24" stroke="#7F5F26"/>
			<rect id="gr_sq_4" x="94.6" y="174.2" class="st16" width="24" height="24"/>
			<rect id="bl_sq_desktop_3" x="208.3" y="186.6" class="st17 st18" width="35.4" height="35.4" stroke="#718CC7"/>
			<polygon id="star" class="st3" points="80.6,100.8 88.3,114.9 102.3,109.7 97.7,125.2 111.3,131.4 97.1,139.1 102.3,153.1 
				86.9,148.5 80.6,162.1 73,147.9 58.9,153.1 63.6,137.7 50,131.4 64.1,123.8 58.9,109.7 74.3,114.4 			"/>
		</g>
		<path id="gr_sq_2_1" class="st12" d="M117.1,151.7h23.6v24h-24v-24H117.1z M117.1,151.7L117.1,151.7L117.1,151.7z M139.7,152.6
			h-22.2v22.2h22.2V152.6z"/>
		<rect id="gr_sq_2" x="117.1" y="151.7" class="st13" width="24" height="24" stroke="#B3B2B3"/>
		<path id="gr_sq_1_1" class="st2" d="M128.3,140.5h23.6v24h-24v-24H128.3z M128.3,140.5L128.3,140.5L128.3,140.5z M150.9,141.4
			h-22.2v22.2h22.2V141.4z"/>
		<rect id="gr_sq_1" x="128.3" y="140.5" class="st13" width="24" height="24" stroke="#B3B2B3"/>
		<path id="gr_circle_6" class="st9" d="M229.5,105.7c2.9,0,5.6,1.2,7.4,3.1c1.9,1.9,3.1,4.5,3.1,7.4s-1.2,5.5-3.1,7.4
			c-1.8,1.9-4.5,3.1-7.4,3.1s-5.5-1.2-7.4-3.1s-3-4.5-3-7.4s1.1-5.5,3-7.4S226.5,105.7,229.5,105.7z M229.5,105.7L229.5,105.7
			L229.5,105.7z M235.9,109.8c-1.6-1.7-3.9-2.7-6.4-2.7s-4.7,1-6.4,2.7c-1.6,1.6-2.7,3.9-2.7,6.4s1.1,4.7,2.7,6.4
			c1.7,1.7,3.9,2.6,6.4,2.6s4.8-0.9,6.4-2.6c1.7-1.7,2.7-3.9,2.7-6.4C238.6,113.7,237.6,111.4,235.9,109.8z"/>
		<path id="bl_circle_5" class="st6" d="M234.9,141.6c2.9,0,5.5,1.2,7.4,3.1c1.9,1.8,3.1,4.5,3.1,7.4c0,2.9-1.2,5.5-3.1,7.4
			c-1.9,1.9-4.5,3.1-7.4,3.1s-5.6-1.2-7.4-3.1c-1.9-1.9-3.1-4.5-3.1-7.4c0-2.9,1.2-5.6,3.1-7.4C229.2,142.7,231.9,141.6,234.9,141.6
			z M234.9,141.6L234.9,141.6L234.9,141.6z M241.3,145.7c-1.7-1.7-3.9-2.7-6.4-2.7s-4.8,1-6.4,2.7c-1.7,1.6-2.7,3.9-2.7,6.4
			s1,4.7,2.7,6.4c1.6,1.6,3.9,2.6,6.4,2.6s4.7-1,6.4-2.6c1.6-1.7,2.6-3.9,2.6-6.4C243.9,149.5,242.9,147.2,241.3,145.7z"/>
		<path id="br_circle_4" class="st7" d="M208.5,167.9c2.9,0,5.6,1.1,7.4,3c1.9,1.9,3.1,4.6,3.1,7.4c0,2.9-1.2,5.6-3.1,7.4
			c-1.8,1.9-4.5,3.1-7.4,3.1c-2.8,0-5.5-1.2-7.4-3.1c-1.9-1.8-3-4.5-3-7.4c0-2.8,1.1-5.5,3-7.4C203.1,168.9,205.8,167.9,208.5,167.9
			z M208.5,167.9L208.5,167.9L208.5,167.9z M215.1,171.9c-1.7-1.6-4-2.7-6.5-2.7s-4.7,1.1-6.4,2.7c-1.6,1.7-2.7,3.9-2.7,6.4
			s1.1,4.8,2.7,6.4c1.7,1.7,3.9,2.7,6.4,2.7s4.8-1,6.5-2.7c1.6-1.6,2.6-3.9,2.6-6.4C217.7,175.8,216.6,173.5,215.1,171.9z"/>
		<path id="gr_circle_3" class="st10" d="M150.8,184.6c2.9,0,5.5,1.1,7.4,3s3.1,4.6,3.1,7.4c0,2.9-1.2,5.6-3.1,7.5
			c-1.9,1.9-4.5,3-7.4,3s-5.6-1.1-7.4-3c-1.9-1.9-3.1-4.6-3.1-7.5c0-2.8,1.2-5.5,3.1-7.4C145.1,185.6,147.8,184.6,150.8,184.6z
			 M150.8,184.6L150.8,184.6L150.8,184.6z M157.2,188.6c-1.7-1.6-3.9-2.6-6.4-2.6s-4.8,1-6.4,2.6c-1.7,1.7-2.7,3.9-2.7,6.4
			s1,4.8,2.7,6.5c1.6,1.6,3.9,2.6,6.4,2.6s4.7-1,6.4-2.6c1.6-1.7,2.6-4,2.6-6.5C159.8,192.4,158.8,190.2,157.2,188.6z"/>
		<path id="gr_circle_2" class="st9" d="M124.4,210.7c2.9,0,5.6,1.2,7.4,3.1c1.9,1.8,3.1,4.5,3.1,7.4s-1.2,5.5-3.1,7.4
			c-1.8,1.9-4.5,3.1-7.4,3.1c-2.8,0-5.5-1.2-7.4-3.1c-1.9-1.9-3-4.5-3-7.4s1.1-5.6,3-7.4C118.9,211.9,121.6,210.7,124.4,210.7z
			 M124.4,210.7L124.4,210.7L124.4,210.7z M130.9,214.7c-1.6-1.7-3.9-2.7-6.4-2.7s-4.7,1-6.4,2.7c-1.6,1.6-2.7,3.9-2.7,6.4
			s1.1,4.7,2.7,6.4c1.7,1.7,3.9,2.6,6.4,2.6s4.8-0.9,6.4-2.6c1.7-1.7,2.7-3.9,2.7-6.4C133.6,218.7,132.5,216.4,130.9,214.7z"/>
		<path id="bl_circle_1" class="st6" d="M98.2,237c2.9,0,5.5,1.1,7.4,3s3.1,4.6,3.1,7.4c0,2.9-1.2,5.6-3.1,7.4
			c-1.9,1.9-4.5,3.1-7.4,3.1s-5.6-1.2-7.4-3.1c-1.9-1.8-3.1-4.5-3.1-7.4c0-2.8,1.2-5.5,3.1-7.4S95.4,237,98.2,237z M98.2,237
			L98.2,237L98.2,237z M104.6,240.9c-1.7-1.6-3.9-2.6-6.4-2.6s-4.8,1-6.4,2.6c-1.7,1.7-2.7,3.9-2.7,6.4s1,4.8,2.7,6.5
			c1.6,1.6,3.9,2.6,6.4,2.6s4.7-1,6.4-2.6c1.6-1.7,2.6-4,2.6-6.5C107.2,244.9,106.3,242.6,104.6,240.9z"/>
	</g>
</g>
</svg>
